<?xml version="1.0" encoding="utf-8" standalone="no"?>
<!DOCTYPE svg PUBLIC "-//W3C//DTD SVG 1.1//EN"
  "http://www.w3.org/Graphics/SVG/1.1/DTD/svg11.dtd">
<svg xmlns:xlink="http://www.w3.org/1999/xlink" width="460.8pt" height="345.6pt" viewBox="0 0 460.8 345.6" xmlns="http://www.w3.org/2000/svg" version="1.1">
 <metadata>
  <rdf:RDF xmlns:dc="http://purl.org/dc/elements/1.1/" xmlns:cc="http://creativecommons.org/ns#" xmlns:rdf="http://www.w3.org/1999/02/22-rdf-syntax-ns#">
   <cc:Work>
    <dc:type rdf:resource="http://purl.org/dc/dcmitype/StillImage"/>
    <dc:date>2022-10-28T14:33:26.780545</dc:date>
    <dc:format>image/svg+xml</dc:format>
    <dc:creator>
     <cc:Agent>
      <dc:title>Matplotlib v3.5.2, https://matplotlib.org/</dc:title>
     </cc:Agent>
    </dc:creator>
   </cc:Work>
  </rdf:RDF>
 </metadata>
 <defs>
  <style type="text/css">*{stroke-linejoin: round; stroke-linecap: butt}</style>
 </defs>
 <g id="figure_1">
  <g id="patch_1">
   <path d="M 0 345.6 
L 460.8 345.6 
L 460.8 0 
L 0 0 
z
" style="fill: #ffffff"/>
  </g>
  <g id="axes_1">
   <g id="patch_2">
    <path d="M 57.6 307.584 
L 414.72 307.584 
L 414.72 41.472 
L 57.6 41.472 
z
" style="fill: #ffffff"/>
   </g>
   <g id="matplotlib.axis_1">
    <g id="xtick_1">
     <g id="line2d_1">
      <path d="M 73.832727 307.584 
L 73.832727 41.472 
" clip-path="url(#p8b93ec1333)" style="fill: none; stroke: #b0b0b0; stroke-width: 0.8; stroke-linecap: square"/>
     </g>
     <g id="line2d_2">
      <defs>
       <path id="m0fc58bb550" d="M 0 0 
L 0 3.5 
" style="stroke: #000000; stroke-width: 0.8"/>
      </defs>
      <g>
       <use xlink:href="#m0fc58bb550" x="73.832727" y="307.584" style="stroke: #000000; stroke-width: 0.8"/>
      </g>
     </g>
     <g id="text_1">
      <!-- 0 -->
      <g transform="translate(70.651477 322.182437)scale(0.1 -0.1)">
       <defs>
        <path id="DejaVuSans-30" d="M 2034 4250 
Q 1547 4250 1301 3770 
Q 1056 3291 1056 2328 
Q 1056 1369 1301 889 
Q 1547 409 2034 409 
Q 2525 409 2770 889 
Q 3016 1369 3016 2328 
Q 3016 3291 2770 3770 
Q 2525 4250 2034 4250 
z
M 2034 4750 
Q 2819 4750 3233 4129 
Q 3647 3509 3647 2328 
Q 3647 1150 3233 529 
Q 2819 -91 2034 -91 
Q 1250 -91 836 529 
Q 422 1150 422 2328 
Q 422 3509 836 4129 
Q 1250 4750 2034 4750 
z
" transform="scale(0.015625)"/>
       </defs>
       <use xlink:href="#DejaVuSans-30"/>
      </g>
     </g>
    </g>
    <g id="xtick_2">
     <g id="line2d_3">
      <path d="M 114.618474 307.584 
L 114.618474 41.472 
" clip-path="url(#p8b93ec1333)" style="fill: none; stroke: #b0b0b0; stroke-width: 0.8; stroke-linecap: square"/>
     </g>
     <g id="line2d_4">
      <g>
       <use xlink:href="#m0fc58bb550" x="114.618474" y="307.584" style="stroke: #000000; stroke-width: 0.8"/>
      </g>
     </g>
     <g id="text_2">
      <!-- 25 -->
      <g transform="translate(108.255974 322.182437)scale(0.1 -0.1)">
       <defs>
        <path id="DejaVuSans-32" d="M 1228 531 
L 3431 531 
L 3431 0 
L 469 0 
L 469 531 
Q 828 903 1448 1529 
Q 2069 2156 2228 2338 
Q 2531 2678 2651 2914 
Q 2772 3150 2772 3378 
Q 2772 3750 2511 3984 
Q 2250 4219 1831 4219 
Q 1534 4219 1204 4116 
Q 875 4013 500 3803 
L 500 4441 
Q 881 4594 1212 4672 
Q 1544 4750 1819 4750 
Q 2544 4750 2975 4387 
Q 3406 4025 3406 3419 
Q 3406 3131 3298 2873 
Q 3191 2616 2906 2266 
Q 2828 2175 2409 1742 
Q 1991 1309 1228 531 
z
" transform="scale(0.015625)"/>
        <path id="DejaVuSans-35" d="M 691 4666 
L 3169 4666 
L 3169 4134 
L 1269 4134 
L 1269 2991 
Q 1406 3038 1543 3061 
Q 1681 3084 1819 3084 
Q 2600 3084 3056 2656 
Q 3513 2228 3513 1497 
Q 3513 744 3044 326 
Q 2575 -91 1722 -91 
Q 1428 -91 1123 -41 
Q 819 9 494 109 
L 494 744 
Q 775 591 1075 516 
Q 1375 441 1709 441 
Q 2250 441 2565 725 
Q 2881 1009 2881 1497 
Q 2881 1984 2565 2268 
Q 2250 2553 1709 2553 
Q 1456 2553 1204 2497 
Q 953 2441 691 2322 
L 691 4666 
z
" transform="scale(0.015625)"/>
       </defs>
       <use xlink:href="#DejaVuSans-32"/>
       <use xlink:href="#DejaVuSans-35" x="63.623047"/>
      </g>
     </g>
    </g>
    <g id="xtick_3">
     <g id="line2d_5">
      <path d="M 155.404221 307.584 
L 155.404221 41.472 
" clip-path="url(#p8b93ec1333)" style="fill: none; stroke: #b0b0b0; stroke-width: 0.8; stroke-linecap: square"/>
     </g>
     <g id="line2d_6">
      <g>
       <use xlink:href="#m0fc58bb550" x="155.404221" y="307.584" style="stroke: #000000; stroke-width: 0.8"/>
      </g>
     </g>
     <g id="text_3">
      <!-- 50 -->
      <g transform="translate(149.041721 322.182437)scale(0.1 -0.1)">
       <use xlink:href="#DejaVuSans-35"/>
       <use xlink:href="#DejaVuSans-30" x="63.623047"/>
      </g>
     </g>
    </g>
    <g id="xtick_4">
     <g id="line2d_7">
      <path d="M 196.189968 307.584 
L 196.189968 41.472 
" clip-path="url(#p8b93ec1333)" style="fill: none; stroke: #b0b0b0; stroke-width: 0.8; stroke-linecap: square"/>
     </g>
     <g id="line2d_8">
      <g>
       <use xlink:href="#m0fc58bb550" x="196.189968" y="307.584" style="stroke: #000000; stroke-width: 0.8"/>
      </g>
     </g>
     <g id="text_4">
      <!-- 75 -->
      <g transform="translate(189.827468 322.182437)scale(0.1 -0.1)">
       <defs>
        <path id="DejaVuSans-37" d="M 525 4666 
L 3525 4666 
L 3525 4397 
L 1831 0 
L 1172 0 
L 2766 4134 
L 525 4134 
L 525 4666 
z
" transform="scale(0.015625)"/>
       </defs>
       <use xlink:href="#DejaVuSans-37"/>
       <use xlink:href="#DejaVuSans-35" x="63.623047"/>
      </g>
     </g>
    </g>
    <g id="xtick_5">
     <g id="line2d_9">
      <path d="M 236.975715 307.584 
L 236.975715 41.472 
" clip-path="url(#p8b93ec1333)" style="fill: none; stroke: #b0b0b0; stroke-width: 0.8; stroke-linecap: square"/>
     </g>
     <g id="line2d_10">
      <g>
       <use xlink:href="#m0fc58bb550" x="236.975715" y="307.584" style="stroke: #000000; stroke-width: 0.8"/>
      </g>
     </g>
     <g id="text_5">
      <!-- 100 -->
      <g transform="translate(227.431965 322.182437)scale(0.1 -0.1)">
       <defs>
        <path id="DejaVuSans-31" d="M 794 531 
L 1825 531 
L 1825 4091 
L 703 3866 
L 703 4441 
L 1819 4666 
L 2450 4666 
L 2450 531 
L 3481 531 
L 3481 0 
L 794 0 
L 794 531 
z
" transform="scale(0.015625)"/>
       </defs>
       <use xlink:href="#DejaVuSans-31"/>
       <use xlink:href="#DejaVuSans-30" x="63.623047"/>
       <use xlink:href="#DejaVuSans-30" x="127.246094"/>
      </g>
     </g>
    </g>
    <g id="xtick_6">
     <g id="line2d_11">
      <path d="M 277.761462 307.584 
L 277.761462 41.472 
" clip-path="url(#p8b93ec1333)" style="fill: none; stroke: #b0b0b0; stroke-width: 0.8; stroke-linecap: square"/>
     </g>
     <g id="line2d_12">
      <g>
       <use xlink:href="#m0fc58bb550" x="277.761462" y="307.584" style="stroke: #000000; stroke-width: 0.8"/>
      </g>
     </g>
     <g id="text_6">
      <!-- 125 -->
      <g transform="translate(268.217712 322.182437)scale(0.1 -0.1)">
       <use xlink:href="#DejaVuSans-31"/>
       <use xlink:href="#DejaVuSans-32" x="63.623047"/>
       <use xlink:href="#DejaVuSans-35" x="127.246094"/>
      </g>
     </g>
    </g>
    <g id="xtick_7">
     <g id="line2d_13">
      <path d="M 318.547209 307.584 
L 318.547209 41.472 
" clip-path="url(#p8b93ec1333)" style="fill: none; stroke: #b0b0b0; stroke-width: 0.8; stroke-linecap: square"/>
     </g>
     <g id="line2d_14">
      <g>
       <use xlink:href="#m0fc58bb550" x="318.547209" y="307.584" style="stroke: #000000; stroke-width: 0.8"/>
      </g>
     </g>
     <g id="text_7">
      <!-- 150 -->
      <g transform="translate(309.003459 322.182437)scale(0.1 -0.1)">
       <use xlink:href="#DejaVuSans-31"/>
       <use xlink:href="#DejaVuSans-35" x="63.623047"/>
       <use xlink:href="#DejaVuSans-30" x="127.246094"/>
      </g>
     </g>
    </g>
    <g id="xtick_8">
     <g id="line2d_15">
      <path d="M 359.332956 307.584 
L 359.332956 41.472 
" clip-path="url(#p8b93ec1333)" style="fill: none; stroke: #b0b0b0; stroke-width: 0.8; stroke-linecap: square"/>
     </g>
     <g id="line2d_16">
      <g>
       <use xlink:href="#m0fc58bb550" x="359.332956" y="307.584" style="stroke: #000000; stroke-width: 0.8"/>
      </g>
     </g>
     <g id="text_8">
      <!-- 175 -->
      <g transform="translate(349.789206 322.182437)scale(0.1 -0.1)">
       <use xlink:href="#DejaVuSans-31"/>
       <use xlink:href="#DejaVuSans-37" x="63.623047"/>
       <use xlink:href="#DejaVuSans-35" x="127.246094"/>
      </g>
     </g>
    </g>
    <g id="xtick_9">
     <g id="line2d_17">
      <path d="M 400.118703 307.584 
L 400.118703 41.472 
" clip-path="url(#p8b93ec1333)" style="fill: none; stroke: #b0b0b0; stroke-width: 0.8; stroke-linecap: square"/>
     </g>
     <g id="line2d_18">
      <g>
       <use xlink:href="#m0fc58bb550" x="400.118703" y="307.584" style="stroke: #000000; stroke-width: 0.8"/>
      </g>
     </g>
     <g id="text_9">
      <!-- 200 -->
      <g transform="translate(390.574953 322.182437)scale(0.1 -0.1)">
       <use xlink:href="#DejaVuSans-32"/>
       <use xlink:href="#DejaVuSans-30" x="63.623047"/>
       <use xlink:href="#DejaVuSans-30" x="127.246094"/>
      </g>
     </g>
    </g>
    <g id="text_10">
     <!-- Epoch -->
     <g transform="translate(220.849063 335.860562)scale(0.1 -0.1)">
      <defs>
       <path id="DejaVuSans-45" d="M 628 4666 
L 3578 4666 
L 3578 4134 
L 1259 4134 
L 1259 2753 
L 3481 2753 
L 3481 2222 
L 1259 2222 
L 1259 531 
L 3634 531 
L 3634 0 
L 628 0 
L 628 4666 
z
" transform="scale(0.015625)"/>
       <path id="DejaVuSans-70" d="M 1159 525 
L 1159 -1331 
L 581 -1331 
L 581 3500 
L 1159 3500 
L 1159 2969 
Q 1341 3281 1617 3432 
Q 1894 3584 2278 3584 
Q 2916 3584 3314 3078 
Q 3713 2572 3713 1747 
Q 3713 922 3314 415 
Q 2916 -91 2278 -91 
Q 1894 -91 1617 61 
Q 1341 213 1159 525 
z
M 3116 1747 
Q 3116 2381 2855 2742 
Q 2594 3103 2138 3103 
Q 1681 3103 1420 2742 
Q 1159 2381 1159 1747 
Q 1159 1113 1420 752 
Q 1681 391 2138 391 
Q 2594 391 2855 752 
Q 3116 1113 3116 1747 
z
" transform="scale(0.015625)"/>
       <path id="DejaVuSans-6f" d="M 1959 3097 
Q 1497 3097 1228 2736 
Q 959 2375 959 1747 
Q 959 1119 1226 758 
Q 1494 397 1959 397 
Q 2419 397 2687 759 
Q 2956 1122 2956 1747 
Q 2956 2369 2687 2733 
Q 2419 3097 1959 3097 
z
M 1959 3584 
Q 2709 3584 3137 3096 
Q 3566 2609 3566 1747 
Q 3566 888 3137 398 
Q 2709 -91 1959 -91 
Q 1206 -91 779 398 
Q 353 888 353 1747 
Q 353 2609 779 3096 
Q 1206 3584 1959 3584 
z
" transform="scale(0.015625)"/>
       <path id="DejaVuSans-63" d="M 3122 3366 
L 3122 2828 
Q 2878 2963 2633 3030 
Q 2388 3097 2138 3097 
Q 1578 3097 1268 2742 
Q 959 2388 959 1747 
Q 959 1106 1268 751 
Q 1578 397 2138 397 
Q 2388 397 2633 464 
Q 2878 531 3122 666 
L 3122 134 
Q 2881 22 2623 -34 
Q 2366 -91 2075 -91 
Q 1284 -91 818 406 
Q 353 903 353 1747 
Q 353 2603 823 3093 
Q 1294 3584 2113 3584 
Q 2378 3584 2631 3529 
Q 2884 3475 3122 3366 
z
" transform="scale(0.015625)"/>
       <path id="DejaVuSans-68" d="M 3513 2113 
L 3513 0 
L 2938 0 
L 2938 2094 
Q 2938 2591 2744 2837 
Q 2550 3084 2163 3084 
Q 1697 3084 1428 2787 
Q 1159 2491 1159 1978 
L 1159 0 
L 581 0 
L 581 4863 
L 1159 4863 
L 1159 2956 
Q 1366 3272 1645 3428 
Q 1925 3584 2291 3584 
Q 2894 3584 3203 3211 
Q 3513 2838 3513 2113 
z
" transform="scale(0.015625)"/>
      </defs>
      <use xlink:href="#DejaVuSans-45"/>
      <use xlink:href="#DejaVuSans-70" x="63.183594"/>
      <use xlink:href="#DejaVuSans-6f" x="126.660156"/>
      <use xlink:href="#DejaVuSans-63" x="187.841797"/>
      <use xlink:href="#DejaVuSans-68" x="242.822266"/>
     </g>
    </g>
   </g>
   <g id="matplotlib.axis_2">
    <g id="ytick_1">
     <g id="line2d_19">
      <path d="M 57.6 282.606581 
L 414.72 282.606581 
" clip-path="url(#p8b93ec1333)" style="fill: none; stroke: #b0b0b0; stroke-width: 0.8; stroke-linecap: square"/>
     </g>
     <g id="line2d_20">
      <defs>
       <path id="me9214399d3" d="M 0 0 
L -3.5 0 
" style="stroke: #000000; stroke-width: 0.8"/>
      </defs>
      <g>
       <use xlink:href="#me9214399d3" x="57.6" y="282.606581" style="stroke: #000000; stroke-width: 0.8"/>
      </g>
     </g>
     <g id="text_11">
      <!-- 0.2 -->
      <g transform="translate(34.696875 286.4058)scale(0.1 -0.1)">
       <defs>
        <path id="DejaVuSans-2e" d="M 684 794 
L 1344 794 
L 1344 0 
L 684 0 
L 684 794 
z
" transform="scale(0.015625)"/>
       </defs>
       <use xlink:href="#DejaVuSans-30"/>
       <use xlink:href="#DejaVuSans-2e" x="63.623047"/>
       <use xlink:href="#DejaVuSans-32" x="95.410156"/>
      </g>
     </g>
    </g>
    <g id="ytick_2">
     <g id="line2d_21">
      <path d="M 57.6 233.270176 
L 414.72 233.270176 
" clip-path="url(#p8b93ec1333)" style="fill: none; stroke: #b0b0b0; stroke-width: 0.8; stroke-linecap: square"/>
     </g>
     <g id="line2d_22">
      <g>
       <use xlink:href="#me9214399d3" x="57.6" y="233.270176" style="stroke: #000000; stroke-width: 0.8"/>
      </g>
     </g>
     <g id="text_12">
      <!-- 0.4 -->
      <g transform="translate(34.696875 237.069395)scale(0.1 -0.1)">
       <defs>
        <path id="DejaVuSans-34" d="M 2419 4116 
L 825 1625 
L 2419 1625 
L 2419 4116 
z
M 2253 4666 
L 3047 4666 
L 3047 1625 
L 3713 1625 
L 3713 1100 
L 3047 1100 
L 3047 0 
L 2419 0 
L 2419 1100 
L 313 1100 
L 313 1709 
L 2253 4666 
z
" transform="scale(0.015625)"/>
       </defs>
       <use xlink:href="#DejaVuSans-30"/>
       <use xlink:href="#DejaVuSans-2e" x="63.623047"/>
       <use xlink:href="#DejaVuSans-34" x="95.410156"/>
      </g>
     </g>
    </g>
    <g id="ytick_3">
     <g id="line2d_23">
      <path d="M 57.6 183.933771 
L 414.72 183.933771 
" clip-path="url(#p8b93ec1333)" style="fill: none; stroke: #b0b0b0; stroke-width: 0.8; stroke-linecap: square"/>
     </g>
     <g id="line2d_24">
      <g>
       <use xlink:href="#me9214399d3" x="57.6" y="183.933771" style="stroke: #000000; stroke-width: 0.8"/>
      </g>
     </g>
     <g id="text_13">
      <!-- 0.6 -->
      <g transform="translate(34.696875 187.73299)scale(0.1 -0.1)">
       <defs>
        <path id="DejaVuSans-36" d="M 2113 2584 
Q 1688 2584 1439 2293 
Q 1191 2003 1191 1497 
Q 1191 994 1439 701 
Q 1688 409 2113 409 
Q 2538 409 2786 701 
Q 3034 994 3034 1497 
Q 3034 2003 2786 2293 
Q 2538 2584 2113 2584 
z
M 3366 4563 
L 3366 3988 
Q 3128 4100 2886 4159 
Q 2644 4219 2406 4219 
Q 1781 4219 1451 3797 
Q 1122 3375 1075 2522 
Q 1259 2794 1537 2939 
Q 1816 3084 2150 3084 
Q 2853 3084 3261 2657 
Q 3669 2231 3669 1497 
Q 3669 778 3244 343 
Q 2819 -91 2113 -91 
Q 1303 -91 875 529 
Q 447 1150 447 2328 
Q 447 3434 972 4092 
Q 1497 4750 2381 4750 
Q 2619 4750 2861 4703 
Q 3103 4656 3366 4563 
z
" transform="scale(0.015625)"/>
       </defs>
       <use xlink:href="#DejaVuSans-30"/>
       <use xlink:href="#DejaVuSans-2e" x="63.623047"/>
       <use xlink:href="#DejaVuSans-36" x="95.410156"/>
      </g>
     </g>
    </g>
    <g id="ytick_4">
     <g id="line2d_25">
      <path d="M 57.6 134.597366 
L 414.72 134.597366 
" clip-path="url(#p8b93ec1333)" style="fill: none; stroke: #b0b0b0; stroke-width: 0.8; stroke-linecap: square"/>
     </g>
     <g id="line2d_26">
      <g>
       <use xlink:href="#me9214399d3" x="57.6" y="134.597366" style="stroke: #000000; stroke-width: 0.8"/>
      </g>
     </g>
     <g id="text_14">
      <!-- 0.8 -->
      <g transform="translate(34.696875 138.396585)scale(0.1 -0.1)">
       <defs>
        <path id="DejaVuSans-38" d="M 2034 2216 
Q 1584 2216 1326 1975 
Q 1069 1734 1069 1313 
Q 1069 891 1326 650 
Q 1584 409 2034 409 
Q 2484 409 2743 651 
Q 3003 894 3003 1313 
Q 3003 1734 2745 1975 
Q 2488 2216 2034 2216 
z
M 1403 2484 
Q 997 2584 770 2862 
Q 544 3141 544 3541 
Q 544 4100 942 4425 
Q 1341 4750 2034 4750 
Q 2731 4750 3128 4425 
Q 3525 4100 3525 3541 
Q 3525 3141 3298 2862 
Q 3072 2584 2669 2484 
Q 3125 2378 3379 2068 
Q 3634 1759 3634 1313 
Q 3634 634 3220 271 
Q 2806 -91 2034 -91 
Q 1263 -91 848 271 
Q 434 634 434 1313 
Q 434 1759 690 2068 
Q 947 2378 1403 2484 
z
M 1172 3481 
Q 1172 3119 1398 2916 
Q 1625 2713 2034 2713 
Q 2441 2713 2670 2916 
Q 2900 3119 2900 3481 
Q 2900 3844 2670 4047 
Q 2441 4250 2034 4250 
Q 1625 4250 1398 4047 
Q 1172 3844 1172 3481 
z
" transform="scale(0.015625)"/>
       </defs>
       <use xlink:href="#DejaVuSans-30"/>
       <use xlink:href="#DejaVuSans-2e" x="63.623047"/>
       <use xlink:href="#DejaVuSans-38" x="95.410156"/>
      </g>
     </g>
    </g>
    <g id="ytick_5">
     <g id="line2d_27">
      <path d="M 57.6 85.260961 
L 414.72 85.260961 
" clip-path="url(#p8b93ec1333)" style="fill: none; stroke: #b0b0b0; stroke-width: 0.8; stroke-linecap: square"/>
     </g>
     <g id="line2d_28">
      <g>
       <use xlink:href="#me9214399d3" x="57.6" y="85.260961" style="stroke: #000000; stroke-width: 0.8"/>
      </g>
     </g>
     <g id="text_15">
      <!-- 1.0 -->
      <g transform="translate(34.696875 89.06018)scale(0.1 -0.1)">
       <use xlink:href="#DejaVuSans-31"/>
       <use xlink:href="#DejaVuSans-2e" x="63.623047"/>
       <use xlink:href="#DejaVuSans-30" x="95.410156"/>
      </g>
     </g>
    </g>
    <g id="text_16">
     <!-- Loss -->
     <g transform="translate(28.617188 185.495187)rotate(-90)scale(0.1 -0.1)">
      <defs>
       <path id="DejaVuSans-4c" d="M 628 4666 
L 1259 4666 
L 1259 531 
L 3531 531 
L 3531 0 
L 628 0 
L 628 4666 
z
" transform="scale(0.015625)"/>
       <path id="DejaVuSans-73" d="M 2834 3397 
L 2834 2853 
Q 2591 2978 2328 3040 
Q 2066 3103 1784 3103 
Q 1356 3103 1142 2972 
Q 928 2841 928 2578 
Q 928 2378 1081 2264 
Q 1234 2150 1697 2047 
L 1894 2003 
Q 2506 1872 2764 1633 
Q 3022 1394 3022 966 
Q 3022 478 2636 193 
Q 2250 -91 1575 -91 
Q 1294 -91 989 -36 
Q 684 19 347 128 
L 347 722 
Q 666 556 975 473 
Q 1284 391 1588 391 
Q 1994 391 2212 530 
Q 2431 669 2431 922 
Q 2431 1156 2273 1281 
Q 2116 1406 1581 1522 
L 1381 1569 
Q 847 1681 609 1914 
Q 372 2147 372 2553 
Q 372 3047 722 3315 
Q 1072 3584 1716 3584 
Q 2034 3584 2315 3537 
Q 2597 3491 2834 3397 
z
" transform="scale(0.015625)"/>
      </defs>
      <use xlink:href="#DejaVuSans-4c"/>
      <use xlink:href="#DejaVuSans-6f" x="53.962891"/>
      <use xlink:href="#DejaVuSans-73" x="115.144531"/>
      <use xlink:href="#DejaVuSans-73" x="167.244141"/>
     </g>
    </g>
   </g>
   <g id="line2d_29">
    <path d="M 73.832727 53.568 
L 75.464157 153.505628 
L 77.095587 180.979846 
L 78.727017 197.654747 
L 80.358447 208.772971 
L 81.989877 215.560435 
L 83.621307 221.18041 
L 85.252736 224.358497 
L 86.884166 228.208331 
L 88.515596 230.628891 
L 90.147026 231.920896 
L 91.778456 233.432886 
L 95.041316 234.793618 
L 96.672746 235.158892 
L 98.304175 235.920154 
L 101.567035 236.391298 
L 103.198465 236.886476 
L 104.829895 237.029455 
L 106.461325 237.033426 
L 108.092755 237.652971 
L 109.724185 238.04794 
L 111.355614 238.091369 
L 112.987044 238.541585 
L 116.249904 238.852301 
L 119.512764 239.149828 
L 121.144194 239.228467 
L 122.775624 239.613497 
L 130.932773 240.517955 
L 132.564203 240.338509 
L 134.195633 240.751207 
L 135.827063 240.800647 
L 137.458492 241.23664 
L 139.089922 241.068688 
L 140.721352 241.403087 
L 143.984212 241.660732 
L 150.509931 242.36185 
L 153.772791 242.517237 
L 158.667081 243.018483 
L 160.298511 243.07006 
L 161.929941 243.241686 
L 163.56137 243.199026 
L 173.34995 243.913456 
L 174.98138 243.847 
L 178.244239 244.238265 
L 181.507099 244.263594 
L 186.401389 244.755149 
L 192.927108 244.887741 
L 196.189968 245.253961 
L 199.452828 245.349118 
L 201.084258 245.502403 
L 202.715688 245.400441 
L 207.609977 245.814486 
L 209.241407 245.503461 
L 210.872837 245.832618 
L 214.135697 246.03394 
L 215.767127 245.840252 
L 217.398556 246.195958 
L 225.555706 246.524638 
L 227.187136 246.461963 
L 228.818566 246.571056 
L 230.449995 246.481284 
L 238.607145 246.972556 
L 240.238575 246.944912 
L 243.501434 247.119172 
L 245.132864 247.007042 
L 256.552873 247.506095 
L 258.184303 247.476799 
L 261.447163 247.687546 
L 263.078593 247.606646 
L 264.710023 247.760402 
L 266.341453 247.685443 
L 267.972883 247.924727 
L 269.604312 247.872138 
L 271.235742 247.998167 
L 272.867172 247.868127 
L 276.130032 248.174955 
L 281.024322 248.091182 
L 282.655751 248.542459 
L 285.918611 248.22316 
L 287.550041 248.439778 
L 298.97005 248.507893 
L 300.60148 248.900032 
L 302.23291 248.64936 
L 307.1272 248.806117 
L 308.75863 248.959943 
L 312.021489 248.871761 
L 316.915779 249.224768 
L 320.178639 249.110503 
L 325.072928 249.209595 
L 326.704358 249.138743 
L 328.335788 249.39364 
L 329.967218 249.194621 
L 331.598648 249.347482 
L 333.230078 249.217675 
L 336.492937 249.525018 
L 341.387227 249.384941 
L 344.650087 249.427937 
L 349.544376 249.63765 
L 351.175806 249.691341 
L 352.807236 249.512593 
L 354.438666 249.63914 
L 357.701526 249.645396 
L 365.858675 249.890259 
L 367.490105 249.997972 
L 370.752965 249.780907 
L 372.384395 249.94219 
L 375.647254 249.824926 
L 377.278684 250.052626 
L 378.910114 249.942434 
L 380.541544 250.102847 
L 382.172974 249.982078 
L 383.804404 250.008788 
L 385.435834 249.85625 
L 387.067264 250.109709 
L 388.698693 249.96328 
L 391.961553 250.148069 
L 393.592983 250.033069 
L 395.224413 250.14774 
L 396.855843 250.042324 
L 398.487273 250.168523 
L 398.487273 250.168523 
" clip-path="url(#p8b93ec1333)" style="fill: none; stroke: #ff0000; stroke-width: 2; stroke-linecap: square"/>
   </g>
   <g id="line2d_30">
    <path d="M 73.832727 295.488 
L 75.464157 258.764795 
L 77.095587 251.159809 
L 78.727017 246.753996 
L 80.358447 243.674796 
L 81.989877 238.852215 
L 83.621307 232.693235 
L 85.252736 229.526205 
L 86.884166 223.85715 
L 88.515596 226.523544 
L 90.147026 221.843983 
L 91.778456 220.53455 
L 93.409886 221.099631 
L 95.041316 221.906046 
L 96.672746 218.585218 
L 98.304175 217.473311 
L 99.935605 222.434773 
L 101.567035 216.973829 
L 104.829895 219.117797 
L 106.461325 217.444985 
L 108.092755 216.935189 
L 109.724185 215.687069 
L 111.355614 217.628571 
L 112.987044 216.276741 
L 114.618474 218.273697 
L 116.249904 219.390773 
L 117.881334 217.205518 
L 119.512764 217.227977 
L 121.144194 214.676622 
L 122.775624 214.681335 
L 124.407053 215.101403 
L 126.038483 214.266589 
L 127.669913 216.828111 
L 129.301343 214.339922 
L 130.932773 215.531235 
L 132.564203 213.027666 
L 134.195633 212.914067 
L 135.827063 212.115923 
L 137.458492 212.276793 
L 139.089922 212.903812 
L 140.721352 213.308677 
L 142.352782 212.923919 
L 143.984212 211.792669 
L 145.615642 214.368858 
L 147.247072 212.421474 
L 148.878502 212.164591 
L 150.509931 212.458292 
L 152.141361 211.976145 
L 153.772791 212.040781 
L 155.404221 211.254091 
L 157.035651 211.121385 
L 158.667081 212.185419 
L 160.298511 211.22367 
L 161.929941 212.732605 
L 163.56137 211.714756 
L 165.1928 212.253539 
L 166.82423 210.880434 
L 168.45566 213.136993 
L 170.08709 212.31153 
L 171.71852 210.967926 
L 173.34995 212.545799 
L 174.98138 211.848704 
L 176.61281 210.33496 
L 178.244239 211.171892 
L 179.875669 211.854526 
L 181.507099 210.066807 
L 183.138529 210.581242 
L 186.401389 212.539543 
L 188.032819 210.686687 
L 189.664249 211.461968 
L 191.295678 210.920008 
L 192.927108 211.088384 
L 194.558538 210.471701 
L 196.189968 211.694759 
L 197.821398 210.593519 
L 199.452828 211.336423 
L 202.715688 211.229588 
L 204.347117 210.160607 
L 205.978547 210.574596 
L 207.609977 210.675123 
L 209.241407 210.095633 
L 210.872837 210.648708 
L 212.504267 210.594717 
L 214.135697 210.199439 
L 215.767127 209.594313 
L 217.398556 210.906694 
L 219.029986 210.212076 
L 220.661416 210.604524 
L 222.292846 210.316014 
L 223.924276 211.083907 
L 225.555706 210.138941 
L 227.187136 210.970293 
L 228.818566 211.257407 
L 230.449995 212.309177 
L 232.081425 209.552114 
L 233.712855 210.172583 
L 235.344285 209.690797 
L 236.975715 211.062432 
L 238.607145 210.227346 
L 240.238575 209.007508 
L 241.870005 209.506262 
L 243.501434 210.864105 
L 245.132864 210.401162 
L 246.764294 209.451697 
L 248.395724 210.090678 
L 250.027154 209.763887 
L 251.658584 209.629086 
L 253.290014 209.86462 
L 256.552873 209.273933 
L 258.184303 210.118518 
L 261.447163 209.674571 
L 263.078593 209.935005 
L 264.710023 209.668859 
L 266.341453 210.390509 
L 267.972883 209.265905 
L 269.604312 209.020469 
L 271.235742 209.418291 
L 272.867172 209.187382 
L 274.498602 208.663632 
L 276.130032 209.563458 
L 277.761462 209.346054 
L 279.392892 209.338518 
L 281.024322 208.95359 
L 282.655751 209.051728 
L 284.287181 210.113247 
L 285.918611 209.014823 
L 287.550041 208.683746 
L 289.181471 209.327733 
L 290.812901 209.425805 
L 292.444331 209.172465 
L 294.075761 209.08695 
L 295.70719 208.889763 
L 297.33862 209.020984 
L 298.97005 209.652252 
L 300.60148 209.825487 
L 302.23291 208.947415 
L 305.49577 209.04026 
L 307.1272 209.217752 
L 308.75863 209.145418 
L 310.390059 208.910186 
L 312.021489 208.495256 
L 313.652919 208.456763 
L 315.284349 208.177854 
L 316.915779 208.845881 
L 318.547209 208.480215 
L 320.178639 208.396949 
L 321.810069 209.471878 
L 323.441498 208.280293 
L 325.072928 208.401184 
L 326.704358 209.141684 
L 328.335788 208.269912 
L 329.967218 209.40669 
L 331.598648 208.512592 
L 336.492937 208.142639 
L 339.755797 208.412682 
L 341.387227 208.342841 
L 343.018657 208.614714 
L 344.650087 209.540638 
L 346.281517 208.481068 
L 347.912947 208.395214 
L 349.544376 207.897563 
L 351.175806 208.341312 
L 352.807236 208.2222 
L 354.438666 208.460733 
L 356.070096 208.864628 
L 357.701526 208.342032 
L 359.332956 208.749015 
L 360.964386 208.530486 
L 367.490105 208.728827 
L 369.121535 208.183735 
L 370.752965 208.070005 
L 372.384395 208.10694 
L 374.015825 207.926264 
L 375.647254 208.127289 
L 377.278684 208.123643 
L 378.910114 207.890873 
L 380.541544 207.912355 
L 382.172974 208.168267 
L 383.804404 208.647231 
L 385.435834 208.748169 
L 387.067264 208.267545 
L 388.698693 208.221229 
L 390.330123 208.313963 
L 391.961553 208.110998 
L 396.855843 208.290953 
L 398.487273 208.2006 
L 398.487273 208.2006 
" clip-path="url(#p8b93ec1333)" style="fill: none; stroke: #ff7f50; stroke-width: 2; stroke-linecap: square"/>
   </g>
   <g id="line2d_31">
    <path d="M 73.832727 79.02276 
L 75.464157 128.103565 
L 77.095587 165.767934 
L 78.727017 193.436777 
L 80.358447 212.531002 
L 81.989877 224.471521 
L 83.621307 230.679243 
L 85.252736 232.575078 
L 86.884166 229.968574 
L 90.147026 232.505626 
L 91.778456 233.530728 
L 93.409886 234.415994 
L 95.041316 235.080213 
L 96.672746 235.584912 
L 111.355614 238.156297 
L 117.881334 239.041306 
L 129.301343 240.264995 
L 145.615642 241.845499 
L 157.035651 242.840523 
L 173.34995 243.860821 
L 199.452828 245.343967 
L 235.344285 246.786983 
L 284.287181 248.352174 
L 333.230078 249.352271 
L 357.701526 249.656407 
L 370.752965 249.910317 
L 388.698693 250.027005 
L 398.487273 250.16013 
L 398.487273 250.16013 
" clip-path="url(#p8b93ec1333)" style="fill: none; stroke-dasharray: 7.4,3.2; stroke-dashoffset: 0; stroke: #008000; stroke-width: 2"/>
   </g>
   <g id="line2d_32">
    <path d="M 73.832727 285.50127 
L 75.464157 269.886199 
L 77.095587 257.296909 
L 78.727017 247.390247 
L 80.358447 239.82306 
L 81.989877 234.252194 
L 83.621307 230.334498 
L 85.252736 227.726818 
L 86.884166 227.142262 
L 88.515596 224.506998 
L 90.147026 222.761485 
L 91.778456 221.307655 
L 93.409886 220.369599 
L 96.672746 219.627322 
L 98.304175 219.465196 
L 99.935605 218.748518 
L 101.567035 218.667263 
L 104.829895 217.575313 
L 106.461325 217.433543 
L 109.724185 217.565722 
L 111.355614 217.310712 
L 112.987044 217.524106 
L 114.618474 217.283009 
L 116.249904 216.854186 
L 117.881334 216.844848 
L 119.512764 216.56476 
L 121.144194 216.420407 
L 122.775624 215.971694 
L 124.407053 215.641249 
L 127.669913 214.532698 
L 130.932773 213.975434 
L 132.564203 213.897866 
L 134.195633 213.384425 
L 139.089922 212.600429 
L 140.721352 212.689362 
L 142.352782 212.623856 
L 143.984212 212.829785 
L 145.615642 212.815557 
L 148.878502 212.500234 
L 150.509931 212.165465 
L 153.772791 211.888664 
L 155.404221 211.889446 
L 157.035651 211.555701 
L 160.298511 211.81762 
L 161.929941 211.778596 
L 166.82423 212.129272 
L 170.08709 211.974458 
L 171.71852 211.900863 
L 173.34995 211.59663 
L 174.98138 211.4086 
L 178.244239 211.273892 
L 179.875669 211.096304 
L 183.138529 211.223336 
L 184.769959 211.056919 
L 188.032819 211.247688 
L 191.295678 211.146171 
L 192.927108 211.306503 
L 197.821398 210.982325 
L 199.452828 211.013169 
L 202.715688 210.874761 
L 204.347117 210.834547 
L 207.609977 210.508287 
L 214.135697 210.322104 
L 217.398556 210.312803 
L 219.029986 210.276092 
L 220.661416 210.556706 
L 227.187136 210.835098 
L 230.449995 210.814997 
L 233.712855 210.438772 
L 241.870005 209.883502 
L 243.501434 210.04659 
L 254.921444 209.607372 
L 258.184303 209.839629 
L 261.447163 209.810927 
L 263.078593 209.821481 
L 269.604312 209.416786 
L 277.761462 209.161242 
L 281.024322 209.252825 
L 305.49577 209.137202 
L 308.75863 208.913746 
L 310.390059 208.687269 
L 316.915779 208.587347 
L 318.547209 208.502288 
L 326.704358 208.754544 
L 333.230078 208.337573 
L 336.492937 208.425257 
L 351.175806 208.452199 
L 356.070096 208.377774 
L 359.332956 208.637403 
L 362.595815 208.654299 
L 369.121535 208.372958 
L 374.015825 208.031625 
L 378.910114 208.093204 
L 383.804404 208.294302 
L 390.330123 208.292038 
L 398.487273 208.164579 
L 398.487273 208.164579 
" clip-path="url(#p8b93ec1333)" style="fill: none; stroke-dasharray: 7.4,3.2; stroke-dashoffset: 0; stroke: #8b4513; stroke-width: 2"/>
   </g>
   <g id="patch_3">
    <path d="M 57.6 307.584 
L 57.6 41.472 
" style="fill: none; stroke: #000000; stroke-width: 0.8; stroke-linejoin: miter; stroke-linecap: square"/>
   </g>
   <g id="patch_4">
    <path d="M 414.72 307.584 
L 414.72 41.472 
" style="fill: none; stroke: #000000; stroke-width: 0.8; stroke-linejoin: miter; stroke-linecap: square"/>
   </g>
   <g id="patch_5">
    <path d="M 57.6 307.584 
L 414.72 307.584 
" style="fill: none; stroke: #000000; stroke-width: 0.8; stroke-linejoin: miter; stroke-linecap: square"/>
   </g>
   <g id="patch_6">
    <path d="M 57.6 41.472 
L 414.72 41.472 
" style="fill: none; stroke: #000000; stroke-width: 0.8; stroke-linejoin: miter; stroke-linecap: square"/>
   </g>
   <g id="legend_1">
    <g id="patch_7">
     <path d="M 258.86375 108.1845 
L 407.72 108.1845 
Q 409.72 108.1845 409.72 106.1845 
L 409.72 48.472 
Q 409.72 46.472 407.72 46.472 
L 258.86375 46.472 
Q 256.86375 46.472 256.86375 48.472 
L 256.86375 106.1845 
Q 256.86375 108.1845 258.86375 108.1845 
z
" style="fill: #ffffff; opacity: 0.8; stroke: #cccccc; stroke-linejoin: miter"/>
    </g>
    <g id="line2d_33">
     <path d="M 260.86375 54.570438 
L 270.86375 54.570438 
L 280.86375 54.570438 
" style="fill: none; stroke: #ff0000; stroke-width: 2; stroke-linecap: square"/>
    </g>
    <g id="text_17">
     <!-- train loss -->
     <g transform="translate(288.86375 58.070438)scale(0.1 -0.1)">
      <defs>
       <path id="DejaVuSans-74" d="M 1172 4494 
L 1172 3500 
L 2356 3500 
L 2356 3053 
L 1172 3053 
L 1172 1153 
Q 1172 725 1289 603 
Q 1406 481 1766 481 
L 2356 481 
L 2356 0 
L 1766 0 
Q 1100 0 847 248 
Q 594 497 594 1153 
L 594 3053 
L 172 3053 
L 172 3500 
L 594 3500 
L 594 4494 
L 1172 4494 
z
" transform="scale(0.015625)"/>
       <path id="DejaVuSans-72" d="M 2631 2963 
Q 2534 3019 2420 3045 
Q 2306 3072 2169 3072 
Q 1681 3072 1420 2755 
Q 1159 2438 1159 1844 
L 1159 0 
L 581 0 
L 581 3500 
L 1159 3500 
L 1159 2956 
Q 1341 3275 1631 3429 
Q 1922 3584 2338 3584 
Q 2397 3584 2469 3576 
Q 2541 3569 2628 3553 
L 2631 2963 
z
" transform="scale(0.015625)"/>
       <path id="DejaVuSans-61" d="M 2194 1759 
Q 1497 1759 1228 1600 
Q 959 1441 959 1056 
Q 959 750 1161 570 
Q 1363 391 1709 391 
Q 2188 391 2477 730 
Q 2766 1069 2766 1631 
L 2766 1759 
L 2194 1759 
z
M 3341 1997 
L 3341 0 
L 2766 0 
L 2766 531 
Q 2569 213 2275 61 
Q 1981 -91 1556 -91 
Q 1019 -91 701 211 
Q 384 513 384 1019 
Q 384 1609 779 1909 
Q 1175 2209 1959 2209 
L 2766 2209 
L 2766 2266 
Q 2766 2663 2505 2880 
Q 2244 3097 1772 3097 
Q 1472 3097 1187 3025 
Q 903 2953 641 2809 
L 641 3341 
Q 956 3463 1253 3523 
Q 1550 3584 1831 3584 
Q 2591 3584 2966 3190 
Q 3341 2797 3341 1997 
z
" transform="scale(0.015625)"/>
       <path id="DejaVuSans-69" d="M 603 3500 
L 1178 3500 
L 1178 0 
L 603 0 
L 603 3500 
z
M 603 4863 
L 1178 4863 
L 1178 4134 
L 603 4134 
L 603 4863 
z
" transform="scale(0.015625)"/>
       <path id="DejaVuSans-6e" d="M 3513 2113 
L 3513 0 
L 2938 0 
L 2938 2094 
Q 2938 2591 2744 2837 
Q 2550 3084 2163 3084 
Q 1697 3084 1428 2787 
Q 1159 2491 1159 1978 
L 1159 0 
L 581 0 
L 581 3500 
L 1159 3500 
L 1159 2956 
Q 1366 3272 1645 3428 
Q 1925 3584 2291 3584 
Q 2894 3584 3203 3211 
Q 3513 2838 3513 2113 
z
" transform="scale(0.015625)"/>
       <path id="DejaVuSans-20" transform="scale(0.015625)"/>
       <path id="DejaVuSans-6c" d="M 603 4863 
L 1178 4863 
L 1178 0 
L 603 0 
L 603 4863 
z
" transform="scale(0.015625)"/>
      </defs>
      <use xlink:href="#DejaVuSans-74"/>
      <use xlink:href="#DejaVuSans-72" x="39.208984"/>
      <use xlink:href="#DejaVuSans-61" x="80.322266"/>
      <use xlink:href="#DejaVuSans-69" x="141.601562"/>
      <use xlink:href="#DejaVuSans-6e" x="169.384766"/>
      <use xlink:href="#DejaVuSans-20" x="232.763672"/>
      <use xlink:href="#DejaVuSans-6c" x="264.550781"/>
      <use xlink:href="#DejaVuSans-6f" x="292.333984"/>
      <use xlink:href="#DejaVuSans-73" x="353.515625"/>
      <use xlink:href="#DejaVuSans-73" x="405.615234"/>
     </g>
    </g>
    <g id="line2d_34">
     <path d="M 260.86375 69.248563 
L 270.86375 69.248563 
L 280.86375 69.248563 
" style="fill: none; stroke: #ff7f50; stroke-width: 2; stroke-linecap: square"/>
    </g>
    <g id="text_18">
     <!-- dice coefficient -->
     <g transform="translate(288.86375 72.748563)scale(0.1 -0.1)">
      <defs>
       <path id="DejaVuSans-64" d="M 2906 2969 
L 2906 4863 
L 3481 4863 
L 3481 0 
L 2906 0 
L 2906 525 
Q 2725 213 2448 61 
Q 2172 -91 1784 -91 
Q 1150 -91 751 415 
Q 353 922 353 1747 
Q 353 2572 751 3078 
Q 1150 3584 1784 3584 
Q 2172 3584 2448 3432 
Q 2725 3281 2906 2969 
z
M 947 1747 
Q 947 1113 1208 752 
Q 1469 391 1925 391 
Q 2381 391 2643 752 
Q 2906 1113 2906 1747 
Q 2906 2381 2643 2742 
Q 2381 3103 1925 3103 
Q 1469 3103 1208 2742 
Q 947 2381 947 1747 
z
" transform="scale(0.015625)"/>
       <path id="DejaVuSans-65" d="M 3597 1894 
L 3597 1613 
L 953 1613 
Q 991 1019 1311 708 
Q 1631 397 2203 397 
Q 2534 397 2845 478 
Q 3156 559 3463 722 
L 3463 178 
Q 3153 47 2828 -22 
Q 2503 -91 2169 -91 
Q 1331 -91 842 396 
Q 353 884 353 1716 
Q 353 2575 817 3079 
Q 1281 3584 2069 3584 
Q 2775 3584 3186 3129 
Q 3597 2675 3597 1894 
z
M 3022 2063 
Q 3016 2534 2758 2815 
Q 2500 3097 2075 3097 
Q 1594 3097 1305 2825 
Q 1016 2553 972 2059 
L 3022 2063 
z
" transform="scale(0.015625)"/>
       <path id="DejaVuSans-66" d="M 2375 4863 
L 2375 4384 
L 1825 4384 
Q 1516 4384 1395 4259 
Q 1275 4134 1275 3809 
L 1275 3500 
L 2222 3500 
L 2222 3053 
L 1275 3053 
L 1275 0 
L 697 0 
L 697 3053 
L 147 3053 
L 147 3500 
L 697 3500 
L 697 3744 
Q 697 4328 969 4595 
Q 1241 4863 1831 4863 
L 2375 4863 
z
" transform="scale(0.015625)"/>
      </defs>
      <use xlink:href="#DejaVuSans-64"/>
      <use xlink:href="#DejaVuSans-69" x="63.476562"/>
      <use xlink:href="#DejaVuSans-63" x="91.259766"/>
      <use xlink:href="#DejaVuSans-65" x="146.240234"/>
      <use xlink:href="#DejaVuSans-20" x="207.763672"/>
      <use xlink:href="#DejaVuSans-63" x="239.550781"/>
      <use xlink:href="#DejaVuSans-6f" x="294.53125"/>
      <use xlink:href="#DejaVuSans-65" x="355.712891"/>
      <use xlink:href="#DejaVuSans-66" x="417.236328"/>
      <use xlink:href="#DejaVuSans-66" x="452.441406"/>
      <use xlink:href="#DejaVuSans-69" x="487.646484"/>
      <use xlink:href="#DejaVuSans-63" x="515.429688"/>
      <use xlink:href="#DejaVuSans-69" x="570.410156"/>
      <use xlink:href="#DejaVuSans-65" x="598.193359"/>
      <use xlink:href="#DejaVuSans-6e" x="659.716797"/>
      <use xlink:href="#DejaVuSans-74" x="723.095703"/>
     </g>
    </g>
    <g id="line2d_35">
     <path d="M 260.86375 83.926688 
L 270.86375 83.926688 
L 280.86375 83.926688 
" style="fill: none; stroke-dasharray: 7.4,3.2; stroke-dashoffset: 0; stroke: #008000; stroke-width: 2"/>
    </g>
    <g id="text_19">
     <!-- smooth train loss -->
     <g transform="translate(288.86375 87.426688)scale(0.1 -0.1)">
      <defs>
       <path id="DejaVuSans-6d" d="M 3328 2828 
Q 3544 3216 3844 3400 
Q 4144 3584 4550 3584 
Q 5097 3584 5394 3201 
Q 5691 2819 5691 2113 
L 5691 0 
L 5113 0 
L 5113 2094 
Q 5113 2597 4934 2840 
Q 4756 3084 4391 3084 
Q 3944 3084 3684 2787 
Q 3425 2491 3425 1978 
L 3425 0 
L 2847 0 
L 2847 2094 
Q 2847 2600 2669 2842 
Q 2491 3084 2119 3084 
Q 1678 3084 1418 2786 
Q 1159 2488 1159 1978 
L 1159 0 
L 581 0 
L 581 3500 
L 1159 3500 
L 1159 2956 
Q 1356 3278 1631 3431 
Q 1906 3584 2284 3584 
Q 2666 3584 2933 3390 
Q 3200 3197 3328 2828 
z
" transform="scale(0.015625)"/>
      </defs>
      <use xlink:href="#DejaVuSans-73"/>
      <use xlink:href="#DejaVuSans-6d" x="52.099609"/>
      <use xlink:href="#DejaVuSans-6f" x="149.511719"/>
      <use xlink:href="#DejaVuSans-6f" x="210.693359"/>
      <use xlink:href="#DejaVuSans-74" x="271.875"/>
      <use xlink:href="#DejaVuSans-68" x="311.083984"/>
      <use xlink:href="#DejaVuSans-20" x="374.462891"/>
      <use xlink:href="#DejaVuSans-74" x="406.25"/>
      <use xlink:href="#DejaVuSans-72" x="445.458984"/>
      <use xlink:href="#DejaVuSans-61" x="486.572266"/>
      <use xlink:href="#DejaVuSans-69" x="547.851562"/>
      <use xlink:href="#DejaVuSans-6e" x="575.634766"/>
      <use xlink:href="#DejaVuSans-20" x="639.013672"/>
      <use xlink:href="#DejaVuSans-6c" x="670.800781"/>
      <use xlink:href="#DejaVuSans-6f" x="698.583984"/>
      <use xlink:href="#DejaVuSans-73" x="759.765625"/>
      <use xlink:href="#DejaVuSans-73" x="811.865234"/>
     </g>
    </g>
    <g id="line2d_36">
     <path d="M 260.86375 98.604813 
L 270.86375 98.604813 
L 280.86375 98.604813 
" style="fill: none; stroke-dasharray: 7.4,3.2; stroke-dashoffset: 0; stroke: #8b4513; stroke-width: 2"/>
    </g>
    <g id="text_20">
     <!-- smooth dice coefficient -->
     <g transform="translate(288.86375 102.104813)scale(0.1 -0.1)">
      <use xlink:href="#DejaVuSans-73"/>
      <use xlink:href="#DejaVuSans-6d" x="52.099609"/>
      <use xlink:href="#DejaVuSans-6f" x="149.511719"/>
      <use xlink:href="#DejaVuSans-6f" x="210.693359"/>
      <use xlink:href="#DejaVuSans-74" x="271.875"/>
      <use xlink:href="#DejaVuSans-68" x="311.083984"/>
      <use xlink:href="#DejaVuSans-20" x="374.462891"/>
      <use xlink:href="#DejaVuSans-64" x="406.25"/>
      <use xlink:href="#DejaVuSans-69" x="469.726562"/>
      <use xlink:href="#DejaVuSans-63" x="497.509766"/>
      <use xlink:href="#DejaVuSans-65" x="552.490234"/>
      <use xlink:href="#DejaVuSans-20" x="614.013672"/>
      <use xlink:href="#DejaVuSans-63" x="645.800781"/>
      <use xlink:href="#DejaVuSans-6f" x="700.78125"/>
      <use xlink:href="#DejaVuSans-65" x="761.962891"/>
      <use xlink:href="#DejaVuSans-66" x="823.486328"/>
      <use xlink:href="#DejaVuSans-66" x="858.691406"/>
      <use xlink:href="#DejaVuSans-69" x="893.896484"/>
      <use xlink:href="#DejaVuSans-63" x="921.679688"/>
      <use xlink:href="#DejaVuSans-69" x="976.660156"/>
      <use xlink:href="#DejaVuSans-65" x="1004.443359"/>
      <use xlink:href="#DejaVuSans-6e" x="1065.966797"/>
      <use xlink:href="#DejaVuSans-74" x="1129.345703"/>
     </g>
    </g>
   </g>
  </g>
 </g>
 <defs>
  <clipPath id="p8b93ec1333">
   <rect x="57.6" y="41.472" width="357.12" height="266.112"/>
  </clipPath>
 </defs>
</svg>
